<?xml version="1.0" encoding="utf-8"?>
<!-- Generator: Adobe Illustrator 21.1.0, SVG Export Plug-In . SVG Version: 6.00 Build 0)  -->
<svg version="1.1" id="圖層_1" xmlns="http://www.w3.org/2000/svg" xmlns:xlink="http://www.w3.org/1999/xlink" x="0px" y="0px"
	 viewBox="0 0 512 512" style="enable-background:new 0 0 512 512;" xml:space="preserve">
<style type="text/css">
	.st0{fill:#FFFFFF;}
</style>
<g id="圖層_1_1_">
	<path class="st0" d="M256.6,137.2c-67.5,0-122.2,45.8-122.2,102.3c0,51.5,45.6,94.1,104.7,101.3c0.6,0.1,1.3,0.3,1.8,0.4
		c8.5,1.3,10,4.7,8,13.3c-2,8.6-5.9,16.6-4.7,19.8c1.3,3.2,5.9,5.3,18.6-2.7c12.6-8,64.4-46.3,73.5-53.6c3.7-2.9,6.4-5.5,8.8-7.9
		c20.9-18.3,33.7-43.3,33.7-70.6C378.8,183,324.1,137.2,256.6,137.2z M208.9,286.1c-1.1,0.9-2.6,1.4-4.6,1.4h-23
		c-2.7,0-4.6-0.6-5.8-1.8c-1.2-1.2-1.7-3.1-1.7-5.8v-46.6c0-2.5,0.6-4.3,1.6-5.6c1.1-1.3,2.6-1.8,4.4-1.8c1.8,0,3.3,0.6,4.5,1.8
		c1.1,1.2,1.7,3.1,1.7,5.6v44h18.2c2,0,3.5,0.5,4.6,1.5c1.1,1,1.6,2.2,1.6,3.7S209.9,285.2,208.9,286.1z M229.8,281
		c0,2.5-0.6,4.4-1.7,5.6s-2.7,1.8-4.5,1.8c-1.8,0-3.2-0.6-4.4-1.8c-1.1-1.3-1.7-3.1-1.7-5.6v-47.7c0-2.5,0.6-4.3,1.7-5.6
		s2.6-1.8,4.4-1.8c1.8,0,3.3,0.6,4.5,1.8c1.1,1.2,1.7,3.1,1.7,5.6V281z M291.3,280.5c0,5.3-2.2,8-6.6,8c-1.1,0-2.1-0.1-3-0.5
		s-1.7-0.8-2.5-1.6c-0.8-0.6-1.5-1.6-2.1-2.4c-0.6-0.9-1.3-1.8-2-2.8L252.3,246v35.4c0,2.3-0.6,4-1.6,5.2s-2.5,1.8-4.1,1.8
		c-1.7,0-3.1-0.6-4.2-1.8s-1.6-2.9-1.6-5.2v-46.6c0-2,0.2-3.5,0.6-4.7c0.6-1.3,1.4-2.3,2.6-3c1.2-0.8,2.5-1.2,3.9-1.2
		c1.1,0,2,0.2,2.8,0.6c0.8,0.4,1.5,0.8,2,1.5c0.6,0.6,1.2,1.4,1.8,2.4s1.3,2,1.9,3l23.4,35.6V233c0-2.3,0.6-4.1,1.6-5.2
		c1-1.2,2.4-1.7,4-1.7c1.8,0,3.2,0.6,4.2,1.7c1,1.2,1.6,2.9,1.6,5.2L291.3,280.5L291.3,280.5z M337.9,285.4c-1,0.8-2.5,1.3-4.4,1.3
		h-26.4c-2.7,0-4.6-0.6-5.8-1.8c-1.2-1.2-1.7-3.1-1.7-5.8v-45.5c0-1.8,0.3-3.2,0.8-4.3c0.6-1.1,1.3-1.9,2.5-2.5
		c1.1-0.6,2.5-0.8,4.2-0.8h25.4c1.9,0,3.4,0.5,4.4,1.3c0.9,0.8,1.4,2,1.4,3.4c0,1.5-0.5,2.6-1.4,3.5s-2.4,1.3-4.4,1.3h-20.7v14.8
		h18.6c1.8,0,3.2,0.4,4.2,1.3s1.4,1.9,1.4,3.3c0,1.4-0.5,2.5-1.4,3.4s-2.3,1.3-4.2,1.3h-18.6V277h21.7c1.9,0,3.4,0.5,4.4,1.3
		c1,0.9,1.5,2,1.5,3.6C339.4,283.3,338.9,284.5,337.9,285.4z"/>
</g>
</svg>
