<?xml version="1.0" encoding="utf-8"?>
<!-- Generator: Adobe Illustrator 21.1.0, SVG Export Plug-In . SVG Version: 6.00 Build 0)  -->
<svg version="1.1" id="圖層_1" xmlns="http://www.w3.org/2000/svg" xmlns:xlink="http://www.w3.org/1999/xlink" x="0px" y="0px"
	 viewBox="0 0 512 512" style="enable-background:new 0 0 512 512;" xml:space="preserve">
<style type="text/css">
	.st0{fill:#FFFFFF;}
</style>
<g id="圖層_2">
</g>
<g id="Capa_1">
	<path class="st0" d="M199.8,127c16.5,0.6,33,1.1,49.5,2.9c35.9,4.2,70.8,13,104.7,25.8c3.7,1.4,7.4,3.1,10.8,5
		c6.8,3.9,10,9.8,9.9,17.8c-0.7,52.3-10.5,102.9-30.3,151.4c-4.5,11.1-10,15-22.2,14c-21.8-1.7-43.6-4-65.4-6.4
		c-3.6-0.4-5.8,0-8.1,3.1c-8.8,11.7-20.2,20.3-33.6,26c-1.8,0.8-4.4-0.3-6.6-0.6c0.7-2,1-4.4,2.3-5.8c7.7-7.9,12.8-17.1,14.6-28.5
		c-14-4.2-27.7-8.3-42.6-12.7c20.7-9.2,27.7-25.2,27-45.4c-0.2-5.8,1.9-7.9,7.6-7.7c7,0.3,14-0.1,20.9,0.1c5.6,0.1,6.5-3.3,6.5-7.9
		c-0.1-4.5-0.2-8.6-6.3-8.5c-7.4,0.1-14.8-0.1-22.1,0c-4.4,0.1-6.7-1.7-6.5-6.4c0.2-4.4,0.2-8.8,0-13.1c-0.2-4.6,1.6-6.6,6.3-6.4
		c7,0.2,13.9,0.1,20.9,0c6.5-0.1,7.7-1.6,7.6-8.5c0-6.8-1.2-8.1-7.9-8.2c-7-0.1-14-0.1-20.9,0c-4.2,0.1-6.1-1.6-6.1-6.1
		c0.5-21.2-2.8-16.5,16-21.8c5-1.4,9.9-3,14.8-4.6c3.3-1,4.3-2.7,2.6-6.3c-5.2-11.1-5-11.1-16.6-7c-3.9,1.4-7.9,2.7-11.9,3.8
		c-3.2,0.8-5.1-0.3-4.8-3.8c0.1-0.4,0-0.8,0-1.2c-0.3-11.7-4.6-15-15.9-11.7c-1.6,0.5-3.2,2.7-3.7,4.5c-0.7,2.2-0.2,4.8-0.2,7.1
		c0,11.5-0.2,11.8-11.7,13.4c-2.9,0.4-5.8,0.7-10.2,1.2c5.2-13.6,9.6-26.4,15.1-38.8C186.2,129.3,193,126.8,199.8,127z M255.7,318.6
		c4.6,0.8,9.5,1.1,14,0.3c1.3-0.2,2.5-5,2.5-7.6c0.2-45.8,0.1-91.6,0.1-137.5c0-2.3,0-4.6,0-7c10,0,18.8,0,29,0
		c-4.9,14.5-9.3,28.4-14.3,41.9c-2,5.3-1.6,9.2,2.5,13.4c8.3,8.3,14.1,18.4,16.7,29.9c3.7,16.6-0.8,23.8-17,22.8c-0.4,0-0.8,0-1.2,0
		c-5.5-0.3-6.8,3-6.6,7.6c0.3,4.5-1.4,10.4,6.2,10.5c4.6,0.1,9.2,0.1,13.7-0.5c14-1.4,21.6-8.8,23.6-22.6c2.8-19.7-2.9-36.7-17-50.6
		c-3.6-3.6-3.8-6.4-2-10.9c5.4-13.5,10.3-27.2,15.1-40.9c3.2-8.9-3.7-18.4-13.2-18.6c-15.2-0.1-30.3-0.1-45.4,0
		c-7.6,0.1-8.5,1-8.5,8.7c0,34.1,0,68.1,0,102.2c0,17.5-0.1,35.1,0.1,52.6C253.9,314.5,254.7,318.5,255.7,318.6z"/>
	<path class="st0" d="M190.2,233.1c0.2,19.6,0.7,16.5-15.4,16.6c-6.7,0.1-13.5,0-21.4,0c1-7.2,1.8-13.5,3-19.7
		c0.3-1.3,2.5-3.1,3.8-3.1c8-0.3,15.9-0.1,23.9-0.1C188.1,226.9,190.1,228.8,190.2,233.1z"/>
	<path class="st0" d="M189.8,192.3c0.6,4.5,0.6,9.2-0.1,13.6c-0.2,1.6-2.8,4.2-4.4,4.2c-8.3,0.5-16.6,0.2-24.9,0.2
		c-0.3-1.1-0.4-1.4-0.3-1.5c1.5-5.5,1.3-13.6,4.9-15.8c5.5-3.6,13.6-3.5,20.7-4.4C186.9,188.5,189.6,190.9,189.8,192.3z"/>
	<path class="st0" d="M183.7,266.1c4.1,0,6.8,1.6,6.3,5.9c-0.7,6.5-1.1,13.1-3.4,19.1c-1.4,3.5-5.7,7.2-9.3,8.1
		c-6.2,1.6-7.5,4.8-6.8,10.2c0.2,1.4,0.1,2.7,0.1,4.2c-15.2-2.9-20.3-9.4-19.6-24.2c0.3-6.2,0.6-12.3,0.7-18.4
		c0.1-3.3,0.9-5,4.8-4.9C165.4,266.2,174.5,266.1,183.7,266.1z"/>
</g>
</svg>
